# Blender v2.93.6 OBJ File: 'sweeper.blend'
# www.blender.org
mtllib sweeper.mtl
o Cube_Cube.001
v -1.661742 -0.215463 0.059939
v -1.661742 0.215463 0.059939
v -1.661742 -0.215463 -0.059939
v -1.661742 0.215463 -0.059939
v 1.661742 -0.215463 0.059939
v 1.661742 0.215463 0.059939
v 1.661742 -0.215463 -0.059939
v 1.661742 0.215463 -0.059939
v 0.000000 -0.215463 0.059939
v 0.000000 0.215463 0.059939
v 1.130871 -0.215463 0.059939
v -1.130871 0.215463 0.059939
v -1.130871 -0.215463 0.059939
v 1.130871 0.215463 0.059939
v -1.661742 -0.215463 0.559939
v -1.130871 -0.215463 0.559939
v 1.661742 -0.215463 0.559939
v 1.130871 -0.215463 0.559939
v 1.130871 0.215463 0.109939
v 1.661742 0.215463 0.109939
v -1.130871 0.215463 0.109939
v -1.661742 0.215463 0.109939
v -1.661742 0.715463 0.559939
v -1.130871 0.715463 0.109939
v 1.661742 0.215463 0.059939
v -1.661742 0.715463 0.109939
v 1.130871 0.715463 0.559939
v 1.130871 0.715463 0.109939
v 1.661742 0.715463 0.559939
v 1.661742 0.715463 0.109939
v 1.661742 -0.215463 0.059939
v 1.661742 -0.215463 -0.059939
v 1.661742 -0.215463 0.559939
v 1.130871 -0.215463 0.559939
v 1.130871 0.715463 0.559939
v 1.661742 0.715463 0.559939
v 1.661742 -0.215463 0.059939
v 1.661742 -0.215463 -0.059939
v 1.661742 -0.215463 0.559939
v 1.130871 -0.215463 0.559939
v 1.130871 0.715463 0.559939
v 1.661742 0.715463 0.559939
v 1.661742 0.215463 0.059939
v 1.661742 0.215463 -0.059939
v 0.000000 -0.215463 0.059939
v 0.000000 0.215463 0.059939
v -1.130871 0.215463 0.059939
v -1.130871 -0.215463 0.059939
v -1.661742 -0.215463 0.559939
v -1.130871 -0.215463 0.559939
v 1.661742 0.215463 0.109939
v -1.130871 0.215463 0.109939
v -1.661742 0.715463 0.559939
v -1.130871 0.715463 0.109939
v -1.661742 0.715463 0.109939
v 1.130871 0.715463 0.109939
v 1.661742 0.715463 0.109939
v 1.661742 -0.215463 0.059939
v 1.661742 -0.215463 -0.059939
v 1.661742 -0.215463 0.559939
v 1.130871 -0.215463 0.559939
v 1.130871 0.715463 0.559939
v 1.661742 0.715463 0.559939
v 1.661742 0.215463 -0.059939
v 0.000000 -0.215463 0.059939
v 0.000000 0.215463 0.059939
v -1.130871 0.215463 0.059939
v -1.130871 -0.215463 0.059939
v -1.661742 -0.215463 0.559939
v -1.130871 -0.215463 0.559939
v 1.661742 0.215463 0.109939
v -1.130871 0.215463 0.109939
v -1.661742 0.715463 0.559939
v -1.130871 0.715463 0.109939
v -1.130871 0.715463 0.559939
v -1.661742 0.715463 0.109939
v 1.130871 0.715463 0.109939
v 1.661742 0.715463 0.109939
v 1.661742 -0.215463 0.059939
v 1.661742 -0.215463 -0.059939
v 1.661742 -0.215463 0.559939
v 1.130871 -0.215463 0.559939
v 1.130871 0.715463 0.559939
v 1.661742 0.715463 0.559939
vt 0.390531 0.491206
vt 0.390531 0.608700
vt 0.273038 0.608700
vt 0.273038 0.491206
vt 0.391300 0.491206
vt 0.508794 0.608700
vt 0.391300 0.608700
vt 0.117878 0.726962
vt 0.000385 0.609469
vt 0.117878 0.609469
vt 0.000385 0.746499
vt 0.000385 0.727731
vt 0.490436 0.727731
vt 0.490436 0.746499
vt 0.236140 0.608700
vt 0.118647 0.549953
vt 0.118647 0.491206
vt 0.000385 0.491206
vt 0.117878 0.549953
vt 0.117878 0.608700
vt 0.000385 0.813363
vt 0.425204 0.813363
vt 0.425204 0.820777
vt 0.000385 0.820777
vt 0.118647 0.609469
vt 0.236140 0.649448
vt 0.118647 0.689427
vt 0.782920 0.745025
vt 0.764152 0.745025
vt 0.764152 0.254974
vt 0.782920 0.254974
vt 0.844582 0.500224
vt 0.844582 0.744705
vt 0.840315 0.744705
vt 0.840315 0.500224
vt 0.272269 0.491206
vt 0.253501 0.540212
vt 0.253501 0.491206
vt 0.374005 0.609469
vt 0.423011 0.628236
vt 0.374005 0.628236
vt 0.244373 0.491206
vt 0.244373 0.604359
vt 0.242398 0.604359
vt 0.242398 0.491206
vt 0.373236 0.629005
vt 0.236909 0.647773
vt 0.236909 0.629005
vt 0.254974 0.490437
vt 0.508794 0.000385
vt 0.372467 0.441432
vt 0.835279 0.499455
vt 0.835279 0.254974
vt 0.839546 0.254974
vt 0.839546 0.499455
vt 0.373236 0.609469
vt 0.236909 0.628236
vt 0.236909 0.609469
vt 0.117878 0.049390
vt 0.254205 0.049390
vt 0.254205 0.490437
vt 0.000385 0.490437
vt 0.000385 0.000385
vt 0.117878 0.000385
vt 0.000385 0.785573
vt 0.441430 0.766805
vt 0.441430 0.785573
vt 0.509563 0.000385
vt 0.999615 0.254205
vt 0.558568 0.117878
vt 0.835279 0.744705
vt 0.835279 0.500224
vt 0.839546 0.500224
vt 0.839546 0.744705
vt 0.271578 0.589275
vt 0.253501 0.589275
vt 0.253501 0.588959
vt 0.271578 0.588959
vt 0.253501 0.595467
vt 0.271578 0.595467
vt 0.271578 0.595783
vt 0.253501 0.595783
vt 0.000385 0.786342
vt 0.472406 0.786342
vt 0.472406 0.794580
vt 0.000385 0.794580
vt 0.508794 0.609469
vt 0.508794 0.853950
vt 0.504527 0.853950
vt 0.504527 0.609469
vt 0.830243 0.744705
vt 0.830243 0.500224
vt 0.834510 0.500224
vt 0.834510 0.744705
vt 0.239654 0.604377
vt 0.239654 0.491206
vt 0.241629 0.491206
vt 0.241629 0.604377
vt 0.271578 0.590360
vt 0.253501 0.590360
vt 0.253501 0.590044
vt 0.271578 0.590044
vt 0.487176 0.633725
vt 0.374005 0.633725
vt 0.374005 0.631750
vt 0.487176 0.631750
vt 0.849618 0.500224
vt 0.849618 0.744705
vt 0.845351 0.744705
vt 0.845351 0.500224
vt 0.253501 0.593298
vt 0.271578 0.593298
vt 0.271578 0.593614
vt 0.253501 0.593614
vt 0.000385 0.804356
vt 0.472406 0.804356
vt 0.472406 0.812594
vt 0.000385 0.812594
vt 0.834510 0.254974
vt 0.834510 0.499455
vt 0.830243 0.499455
vt 0.830243 0.254974
vt 0.251454 0.539185
vt 0.251454 0.586394
vt 0.250630 0.586394
vt 0.250630 0.539192
vt 0.236909 0.648542
vt 0.368220 0.648542
vt 0.368220 0.650834
vt 0.236909 0.650834
vt 0.845351 0.499455
vt 0.845351 0.254974
vt 0.849618 0.254974
vt 0.849618 0.499455
vt 0.462288 0.611582
vt 0.423780 0.611582
vt 0.423780 0.610910
vt 0.462288 0.610910
vt 0.499492 0.853913
vt 0.499492 0.609469
vt 0.503758 0.609469
vt 0.503758 0.853912
vt 0.852678 0.254974
vt 0.852678 0.386265
vt 0.850387 0.386265
vt 0.850387 0.254974
vt 0.259528 0.540981
vt 0.259528 0.559055
vt 0.259213 0.559055
vt 0.259213 0.540981
vt 0.252538 0.491206
vt 0.252538 0.509281
vt 0.252223 0.509281
vt 0.252223 0.491206
vt 0.245142 0.604359
vt 0.245142 0.491206
vt 0.247117 0.491206
vt 0.247117 0.604359
vt 0.811462 0.254974
vt 0.811462 0.726924
vt 0.803226 0.726924
vt 0.803226 0.254974
vt 0.260298 0.559055
vt 0.260298 0.540981
vt 0.260613 0.540981
vt 0.260613 0.559055
vt 0.249861 0.491206
vt 0.249861 0.604359
vt 0.247886 0.604359
vt 0.247886 0.491206
vt 0.493370 0.740759
vt 0.493370 0.609469
vt 0.495662 0.609469
vt 0.495662 0.740759
vt 0.255094 0.588176
vt 0.255095 0.540981
vt 0.255918 0.540981
vt 0.255918 0.588169
vt 0.256687 0.579483
vt 0.256687 0.540981
vt 0.257359 0.540981
vt 0.257359 0.579483
vt 0.821237 0.726924
vt 0.821237 0.254974
vt 0.829474 0.254974
vt 0.829474 0.726924
vt 0.271578 0.591444
vt 0.253501 0.591444
vt 0.253501 0.591129
vt 0.271578 0.591129
vt 0.254325 0.540981
vt 0.254325 0.588190
vt 0.253502 0.588190
vt 0.253501 0.540988
vt 0.253501 0.594383
vt 0.271578 0.594383
vt 0.271578 0.594698
vt 0.253501 0.594698
vt 0.627056 0.303979
vt 0.763383 0.745026
vt 0.509563 0.745026
vt 0.802457 0.254974
vt 0.802457 0.508794
vt 0.783689 0.508794
vt 0.783689 0.254974
vt 0.000385 0.766035
vt 0.441430 0.747268
vt 0.441430 0.766036
vt 0.802457 0.509564
vt 0.802457 0.763384
vt 0.783689 0.763384
vt 0.783689 0.509564
vt 0.374005 0.629005
vt 0.487176 0.629005
vt 0.487176 0.630981
vt 0.374005 0.630981
vt 0.498722 0.609469
vt 0.498722 0.740780
vt 0.496431 0.740780
vt 0.496431 0.609469
vt 0.423780 0.612351
vt 0.462288 0.612351
vt 0.462288 0.613023
vt 0.423780 0.613023
vt 0.271578 0.592529
vt 0.253501 0.592529
vt 0.253501 0.592213
vt 0.271578 0.592213
vt 0.250630 0.538416
vt 0.250630 0.491206
vt 0.251454 0.491206
vt 0.251454 0.538409
vt 0.462288 0.610141
vt 0.423780 0.610141
vt 0.423780 0.609469
vt 0.462288 0.609469
vt 0.487176 0.636469
vt 0.374005 0.636469
vt 0.374005 0.634494
vt 0.487176 0.634494
vt 0.236909 0.604377
vt 0.236909 0.491206
vt 0.238884 0.491206
vt 0.238884 0.604377
vt 0.000385 0.795349
vt 0.472406 0.795349
vt 0.472406 0.803587
vt 0.000385 0.803587
vt 0.000385 0.821546
vt 0.425204 0.821546
vt 0.425204 0.828960
vt 0.000385 0.828960
vt 0.844582 0.254974
vt 0.844582 0.499455
vt 0.840315 0.499455
vt 0.840315 0.254974
vt 0.261698 0.540981
vt 0.261698 0.559055
vt 0.261382 0.559055
vt 0.261382 0.540981
vt 0.258444 0.540981
vt 0.258444 0.559055
vt 0.258128 0.559055
vt 0.258128 0.540981
vt 0.252223 0.528124
vt 0.252223 0.510050
vt 0.252538 0.510050
vt 0.252538 0.528124
vt 0.252223 0.546968
vt 0.252223 0.528893
vt 0.252538 0.528893
vt 0.252538 0.546968
vt 0.820468 0.254974
vt 0.820468 0.726924
vt 0.812232 0.726924
vt 0.812232 0.254974
vt 0.508794 0.491206
vt 0.000385 0.726962
vt 0.236140 0.491206
vt 0.118647 0.608700
vt 0.118647 0.589932
vt 0.118647 0.509974
vt 0.000385 0.608700
vt 0.117878 0.491206
vt 0.117878 0.509974
vt 0.117878 0.589932
vt 0.118647 0.649448
vt 0.236140 0.609469
vt 0.236140 0.689427
vt 0.272269 0.540212
vt 0.423011 0.609469
vt 0.373236 0.647773
vt 0.372467 0.490437
vt 0.254974 0.000385
vt 0.508794 0.441432
vt 0.373236 0.628236
vt 0.000385 0.766805
vt 0.509563 0.117878
vt 0.999615 0.000385
vt 0.558568 0.254205
vt 0.509563 0.254974
vt 0.627056 0.254974
vt 0.763383 0.303979
vt 0.000385 0.747268
vn -1.0000 0.0000 0.0000
vn 0.0000 0.0000 -1.0000
vn 1.0000 0.0000 0.0000
vn 0.0000 -1.0000 0.0000
vn 0.0000 1.0000 0.0000
vn 0.0000 0.0000 1.0000
usemtl Sweeper_Material
s off
f 1/1/1 2/2/1 4/3/1 3/4/1
f 3/5/2 8/6/2 7/7/2
f 7/8/3 6/9/3 5/10/3
f 1/11/4 13/12/4 16/13/4 15/14/4
f 7/15/4 9/16/4 1/17/4
f 4/18/5 10/19/5 6/20/5
f 26/21/6 23/22/6 53/23/6 55/24/6
f 12/25/6 9/26/6 14/27/6
f 11/28/4 5/29/4 17/30/4 18/31/4
f 23/32/6 15/33/6 49/34/6 53/35/6
f 2/36/5 21/37/5 12/38/5
f 14/39/5 20/40/5 6/41/5
f 5/42/6 7/43/6 32/44/6 31/45/6
f 21/46/2 26/47/2 24/48/2
f 1/49/1 23/50/1 22/51/1
f 39/52/6 42/53/6 63/54/6 60/55/6
f 20/56/2 28/57/2 30/58/2
f 20/59/3 30/60/3 29/61/3 17/62/3 5/63/3 6/64/3
f 30/65/5 27/66/5 29/67/5
f 11/68/1 27/69/1 19/70/1
f 33/71/6 36/72/6 42/73/6 39/74/6
f 18/75/6 17/76/6 33/77/6 34/78/6
f 29/79/6 27/80/6 35/81/6 36/82/6
f 5/83/6 17/84/6 33/85/6 31/86/6
f 27/87/6 18/88/6 34/89/6 35/90/6
f 17/91/6 29/92/6 36/93/6 33/94/6
f 13/95/6 12/96/6 47/97/6 48/98/6
f 34/99/6 33/100/6 39/101/6 40/102/6
f 31/103/6 32/104/6 38/105/6 37/106/6
f 35/107/6 34/108/6 40/109/6 41/110/6
f 36/111/6 35/112/6 41/113/6 42/114/6
f 31/115/6 33/116/6 39/117/6 37/118/6
f 62/119/6 61/120/6 82/121/6 83/122/6
f 51/123/6 43/124/6 25/125/6 71/126/6
f 52/127/6 54/128/6 74/129/6 72/130/6
f 60/131/6 63/132/6 84/133/6 81/134/6
f 12/135/6 10/136/6 46/137/6 47/138/6
f 41/139/6 40/140/6 61/141/6 62/142/6
f 30/143/6 20/144/6 51/145/6 57/146/6
f 15/147/6 16/148/6 50/149/6 49/150/6
f 28/151/6 30/152/6 57/153/6 56/154/6
f 8/155/6 6/156/6 43/157/6 44/158/6
f 16/159/6 13/160/6 48/161/6 50/162/6
f 24/163/6 26/164/6 55/165/6 54/166/6
f 37/167/6 38/168/6 59/169/6 58/170/6
f 21/171/6 24/172/6 54/173/6 52/174/6
f 12/175/6 21/176/6 52/177/6 47/178/6
f 9/179/6 13/180/6 48/181/6 45/182/6
f 37/183/6 39/184/6 60/185/6 58/186/6
f 40/187/6 39/188/6 60/189/6 61/190/6
f 20/191/6 6/192/6 43/193/6 51/194/6
f 42/195/6 41/196/6 62/197/6 63/198/6
f 72/199/3 75/200/3 70/201/3
f 73/202/6 69/203/6 70/204/6 75/205/6
f 74/206/5 73/207/5 75/208/5
f 81/209/6 84/210/6 83/211/6 82/212/6
f 44/213/6 43/214/6 25/215/6 64/216/6
f 57/217/6 51/218/6 71/219/6 78/220/6
f 45/221/6 48/222/6 68/223/6 65/224/6
f 56/225/6 57/226/6 78/227/6 77/228/6
f 47/229/6 52/230/6 72/231/6 67/232/6
f 47/233/6 46/234/6 66/235/6 67/236/6
f 58/237/6 59/238/6 80/239/6 79/240/6
f 48/241/6 47/242/6 67/243/6 68/244/6
f 58/245/6 60/246/6 81/247/6 79/248/6
f 55/249/6 53/250/6 73/251/6 76/252/6
f 53/253/6 49/254/6 69/255/6 73/256/6
f 61/257/6 60/258/6 81/259/6 82/260/6
f 49/261/6 50/262/6 70/263/6 69/264/6
f 63/265/6 62/266/6 83/267/6 84/268/6
f 54/269/6 55/270/6 76/271/6 74/272/6
f 50/273/6 48/274/6 68/275/6 70/276/6
f 3/5/2 4/277/2 8/6/2
f 7/8/3 8/278/3 6/9/3
f 1/17/4 3/279/4 7/15/4
f 7/15/4 5/280/4 11/281/4
f 9/16/6 13/282/6 1/17/6
f 7/15/4 11/281/4 9/16/4
f 6/20/5 8/283/5 4/18/5
f 4/18/5 2/284/5 12/285/5
f 10/19/6 14/286/6 6/20/6
f 4/18/5 12/285/5 10/19/5
f 14/27/6 10/287/6 12/25/6
f 12/25/6 13/288/6 9/26/6
f 9/26/6 11/289/6 14/27/6
f 2/36/5 22/290/5 21/37/5
f 14/39/5 19/291/5 20/40/5
f 21/46/2 22/292/2 26/47/2
f 22/51/1 2/293/1 1/49/1
f 1/49/1 15/294/1 23/50/1
f 23/50/1 26/295/1 22/51/1
f 20/56/2 19/296/2 28/57/2
f 30/65/5 28/297/5 27/66/5
f 19/70/1 14/298/1 11/68/1
f 11/68/1 18/299/1 27/69/1
f 27/69/1 28/300/1 19/70/1
f 70/201/3 68/301/3 67/302/3
f 72/199/3 74/303/3 75/200/3
f 70/201/3 67/302/3 72/199/3
f 74/206/5 76/304/5 73/207/5
